Coordinates
version=1
nRows=6
nColumns=46
inDegrees=yes

Units are S.I. units (second, meters, Newtons, ...)
Angles are in degrees.

endheader
time	pelvis_tilt	pelvis_list	pelvis_rotation	pelvis_tx	pelvis_ty	pelvis_tz	bb_angle	bb_tx	bb_ty	bb_tz	hip_flexion_r	hip_adduction_r	hip_rotation_r	knee_angle_r	knee_angle_r_beta	ankle_angle_r	subtalar_angle_r	mtp_angle_r	crank_angle_r	hip_flexion_l	hip_adduction_l	hip_rotation_l	knee_angle_l	knee_angle_l_beta	ankle_angle_l	subtalar_angle_l	mtp_angle_l	crank_angle_l	lumbar_extension	lumbar_bending	lumbar_rotation	arm_flex_r	arm_add_r	arm_rot_r	elbow_flex_r	pro_sup_r	wrist_flex_r	wrist_dev_r	arm_flex_l	arm_add_l	arm_rot_l	elbow_flex_l	pro_sup_l	wrist_flex_l	wrist_dev_l
      7.50500000	    -38.10154429	      3.79613270	     11.81739337	      0.43081726	      1.17431954	     -0.24871298	      0.00000000	      0.50000000	      0.00000000	      0.25000000	     36.71086773	    -12.75607548	    -11.85595497	     30.11624873	      0.52562770	    -17.27427789	     -0.66807634	      0.00000000	      0.00000000	     90.19757687	      4.05760405	      1.91617949	     94.44529984	      1.64838145	     -0.25283076	     -2.85082648	      0.00000000	      0.00000000	    -61.05081709	      4.69399096	    -21.50156565	     39.11834335	     -6.19770394	     21.32359459	    101.67324524	     48.82116639	      0.00000000	      0.00000000	     19.71508959	    -45.51025549	      0.92692674	    120.81051238	     54.27448033	      0.00000000	      0.00000000
      7.51000000	    -38.13734465	      3.50458440	     11.53165543	      0.43068310	      1.17605907	     -0.24960999	      0.00000000	      0.50000000	      0.00000000	      0.25000000	     37.84934458	    -12.49393165	    -11.30610155	     32.74233502	      0.57146155	    -17.83410205	     -2.99094618	      0.00000000	      0.00000000	     89.20297185	      4.01105548	      2.16539020	     92.49587432	      1.61435755	      1.43890570	     -2.83443131	      0.00000000	      0.00000000	    -61.13088938	      4.94864389	    -22.71032390	     40.63031075	     -5.44954458	     23.02939748	    100.03450429	     48.84719353	      0.00000000	      0.00000000	     16.28075249	    -46.06640750	     -2.98387638	    122.15262108	     54.06695836	      0.00000000	      0.00000000
      7.51500000	    -37.90992608	      3.29787726	     11.31289008	      0.43069634	      1.17814703	     -0.25047148	      0.00000000	      0.50000000	      0.00000000	      0.25000000	     38.81205631	    -12.37549418	    -10.97632672	     35.60438151	      0.62141369	    -17.94126494	     -4.66646284	      0.00000000	      0.00000000	     87.78067188	      4.02296986	      2.34919215	     90.31872662	      1.57635916	      2.89252477	     -3.06749580	      0.00000000	      0.00000000	    -61.48778857	      5.07723763	    -22.45860344	     41.18629407	     -5.56381278	     23.23034774	     99.88235589	     48.84080143	      0.00000000	      0.00000000	     16.38956201	    -45.95311798	     -3.11869928	    122.16503959	     54.04989705	      0.00000000	      0.00000000
      7.52000000	    -37.89962388	      3.31710460	     10.93920117	      0.43088656	      1.17999966	     -0.25114833	      0.00000000	      0.50000000	      0.00000000	      0.25000000	     40.07424034	    -12.30819961	    -10.06974028	     38.43690255	      0.67085050	    -18.42662717	     -6.52594816	      0.00000000	      0.00000000	     86.33117896	      3.89941456	      2.24641926	     87.85051840	      1.53328080	      4.24581368	     -3.17432855	      0.00000000	      0.00000000	    -61.61930596	      4.90428337	    -22.49245219	     41.78448797	     -5.91004459	     23.90370691	     99.43835895	     48.83408291	      0.00000000	      0.00000000	     16.47554647	    -45.91011851	     -3.41136529	    122.11663365	     53.98203337	      0.00000000	      0.00000000
      7.52500000	    -37.70146637	      2.93870459	     10.58313857	      0.43119873	      1.18164510	     -0.25236959	      0.00000000	      0.50000000	      0.00000000	      0.25000000	     41.12308702	    -12.00018754	     -9.70994624	     41.27568941	      0.72039668	    -18.56550838	     -7.73241432	      0.00000000	      0.00000000	     84.78166653	      3.76798845	      2.56301615	     85.42791932	      1.49099847	      5.34345453	     -3.49606901	      0.00000000	      0.00000000	    -61.80862889	      5.06647874	    -22.01922000	     42.37650423	     -6.20497289	     24.00560762	     99.21992505	     48.79894243	      0.00000000	      0.00000000	     16.40147419	    -45.84928034	     -3.71446972	    122.01308795	     53.90818789	      0.00000000	      0.00000000
      7.53000000	    -37.65937354	      2.80322735	     10.08900125	      0.43156810	      1.18331031	     -0.25334854	      0.00000000	      0.50000000	      0.00000000	      0.25000000	     42.36349275	    -11.72453383	     -8.83709799	     43.99312184	      0.76782482	    -19.13600199	     -9.18371961	      0.00000000	      0.00000000	     83.22511561	      3.52107658	      2.54884009	     82.76632288	      1.44454484	      6.13935371	     -4.06838020	      0.00000000	      0.00000000	    -61.93211393	      4.98510412	    -21.99494366	     43.17294939	     -6.57921388	     25.12346493	     98.62846130	     48.81644666	      0.00000000	      0.00000000	     16.06568017	    -45.80536872	     -4.32036020	    121.95854405	     53.81559385	      0.00000000	      0.00000000
